<?xml version="1.0" encoding="UTF-8" standalone="no"?>
<!DOCTYPE svg PUBLIC "-//W3C//DTD SVG 1.0//EN" "http://www.w3.org/TR/2001/PR-SVG-20010719/DTD/svg10.dtd">
<svg width="46cm" height="21cm" viewBox="14 29 907 415" xmlns="http://www.w3.org/2000/svg" xmlns:xlink="http://www.w3.org/1999/xlink">
  <g>
    <rect style="fill: #ffffff" x="16" y="137" width="212" height="246"/>
    <rect style="fill: none; fill-opacity:0; stroke-width: 2; stroke: #000000" x="16" y="137" width="212" height="246"/>
    <text font-size="18.0619" style="fill: #000000;text-anchor:middle;font-family:sans-serif;font-style:normal;font-weight:normal" x="122" y="197.728">
      <tspan x="122" y="197.728">caer-bin</tspan>
      <tspan x="122" y="220.306"></tspan>
      <tspan x="122" y="242.883">- init configuration</tspan>
      <tspan x="122" y="265.461">- init logging</tspan>
      <tspan x="122" y="288.039">- start config server</tspan>
      <tspan x="122" y="310.617">- run mainloop</tspan>
      <tspan x="122" y="333.194">- cleanup &amp; exit</tspan>
    </text>
  </g>
  <g>
    <rect style="fill: #ffffff" x="264" y="273" width="656" height="170"/>
    <rect style="fill: none; fill-opacity:0; stroke-width: 2; stroke: #000000" x="264" y="273" width="656" height="170"/>
    <text font-size="18.0622" style="fill: #000000;text-anchor:start;font-family:sans-serif;font-style:normal;font-weight:700" x="273" y="307.017">
      <tspan x="273" y="307.017">Mainloop</tspan>
      <tspan x="273" y="329.594"></tspan>
      <tspan x="273" y="352.172"></tspan>
      <tspan x="273" y="374.75"></tspan>
      <tspan x="273" y="397.328"></tspan>
      <tspan x="273" y="419.906"></tspan>
    </text>
  </g>
  <text font-size="12.7998" style="fill: #000000;text-anchor:start;font-family:sans-serif;font-style:normal;font-weight:normal" x="592" y="358">
    <tspan x="592" y="358"></tspan>
  </text>
  <g>
    <rect style="fill: #ffffff" x="299.6" y="340.067" width="84.4" height="55.8667"/>
    <rect style="fill: none; fill-opacity:0; stroke-width: 2; stroke: #000000" x="299.6" y="340.067" width="84.4" height="55.8667"/>
    <text font-size="13.5465" style="fill: #000000;text-anchor:middle;font-family:sans-serif;font-style:normal;font-weight:normal" x="341.8" y="363.667">
      <tspan x="341.8" y="363.667">Input</tspan>
      <tspan x="341.8" y="380.6">Module</tspan>
    </text>
  </g>
  <g>
    <rect style="fill: #ffffff" x="610.1" y="308.867" width="96.9" height="55.8667"/>
    <rect style="fill: none; fill-opacity:0; stroke-width: 2; stroke: #000000" x="610.1" y="308.867" width="96.9" height="55.8667"/>
    <text font-size="13.5465" style="fill: #000000;text-anchor:middle;font-family:sans-serif;font-style:normal;font-weight:normal" x="658.55" y="332.467">
      <tspan x="658.55" y="332.467">Processing</tspan>
      <tspan x="658.55" y="349.4">Module</tspan>
    </text>
  </g>
  <g>
    <rect style="fill: #ffffff" x="805.45" y="291.567" width="95.55" height="55.8667"/>
    <rect style="fill: none; fill-opacity:0; stroke-width: 2; stroke: #000000" x="805.45" y="291.567" width="95.55" height="55.8667"/>
    <text font-size="13.5465" style="fill: #000000;text-anchor:middle;font-family:sans-serif;font-style:normal;font-weight:normal" x="853.225" y="315.167">
      <tspan x="853.225" y="315.167">Output</tspan>
      <tspan x="853.225" y="332.1">Module</tspan>
    </text>
  </g>
  <g>
    <rect style="fill: #ffffff" x="802.1" y="370.367" width="95.55" height="55.8667"/>
    <rect style="fill: none; fill-opacity:0; stroke-width: 2; stroke: #000000" x="802.1" y="370.367" width="95.55" height="55.8667"/>
    <text font-size="13.5465" style="fill: #000000;text-anchor:middle;font-family:sans-serif;font-style:normal;font-weight:normal" x="849.875" y="393.967">
      <tspan x="849.875" y="393.967">Output</tspan>
      <tspan x="849.875" y="410.9">Module</tspan>
    </text>
  </g>
  <g>
    <rect style="fill: #ffffff" x="475.1" y="369.867" width="96.9" height="55.8667"/>
    <rect style="fill: none; fill-opacity:0; stroke-width: 2; stroke: #000000" x="475.1" y="369.867" width="96.9" height="55.8667"/>
    <text font-size="13.5465" style="fill: #000000;text-anchor:middle;font-family:sans-serif;font-style:normal;font-weight:normal" x="523.55" y="393.467">
      <tspan x="523.55" y="393.467">Processing</tspan>
      <tspan x="523.55" y="410.4">Module</tspan>
    </text>
  </g>
  <g>
    <line style="fill: none; fill-opacity:0; stroke-width: 2; stroke: #000000" x1="384" y1="368" x2="465.846" y2="394.773"/>
    <polygon style="fill: #000000" points="472.975,397.105 461.916,398.748 465.846,394.773 465.025,389.244 "/>
    <polygon style="fill: none; fill-opacity:0; stroke-width: 2; stroke: #000000" points="472.975,397.105 461.916,398.748 465.846,394.773 465.025,389.244 "/>
  </g>
  <g>
    <line style="fill: none; fill-opacity:0; stroke-width: 2; stroke: #000000" x1="384" y1="354.033" x2="600.392" y2="337.54"/>
    <polygon style="fill: #000000" points="607.87,336.97 598.279,342.715 600.392,337.54 597.519,332.744 "/>
    <polygon style="fill: none; fill-opacity:0; stroke-width: 2; stroke: #000000" points="607.87,336.97 598.279,342.715 600.392,337.54 597.519,332.744 "/>
  </g>
  <g>
    <line style="fill: none; fill-opacity:0; stroke-width: 2; stroke: #000000" x1="572" y1="397.8" x2="791.395" y2="398.195"/>
    <polygon style="fill: #000000" points="798.895,398.208 788.887,403.19 791.395,398.195 788.904,393.19 "/>
    <polygon style="fill: none; fill-opacity:0; stroke-width: 2; stroke: #000000" points="798.895,398.208 788.887,403.19 791.395,398.195 788.904,393.19 "/>
  </g>
  <g>
    <line style="fill: none; fill-opacity:0; stroke-width: 2; stroke: #000000" x1="572" y1="383.833" x2="602.747" y2="357.148"/>
    <polygon style="fill: #000000" points="608.411,352.232 604.136,362.563 602.747,357.148 597.582,355.011 "/>
    <polygon style="fill: none; fill-opacity:0; stroke-width: 2; stroke: #000000" points="608.411,352.232 604.136,362.563 602.747,357.148 597.582,355.011 "/>
  </g>
  <g>
    <line style="fill: none; fill-opacity:0; stroke-width: 2; stroke: #000000" x1="707" y1="322.833" x2="795.72" y2="319.829"/>
    <polygon style="fill: #000000" points="803.215,319.576 793.39,324.911 795.72,319.829 793.052,314.917 "/>
    <polygon style="fill: none; fill-opacity:0; stroke-width: 2; stroke: #000000" points="803.215,319.576 793.39,324.911 795.72,319.829 793.052,314.917 "/>
  </g>
  <g>
    <line style="fill: none; fill-opacity:0; stroke-width: 2; stroke: #000000" x1="707" y1="336.8" x2="793.391" y2="379.98"/>
    <polygon style="fill: #000000" points="800.1,383.334 788.92,383.335 793.391,379.98 793.39,374.39 "/>
    <polygon style="fill: none; fill-opacity:0; stroke-width: 2; stroke: #000000" points="800.1,383.334 788.92,383.335 793.391,379.98 793.39,374.39 "/>
  </g>
  <g>
    <rect style="fill: #ffffff" x="464.05" y="61" width="160.9" height="93"/>
    <rect style="fill: none; fill-opacity:0; stroke-width: 2; stroke: #000000" x="464.05" y="61" width="160.9" height="93"/>
    <text font-size="15.8042" style="fill: #000000;text-anchor:middle;font-family:sans-serif;font-style:normal;font-weight:normal" x="544.5" y="92.5167">
      <tspan x="544.5" y="92.5167">Configuration</tspan>
      <tspan x="544.5" y="112.272">Server</tspan>
      <tspan x="544.5" y="132.028">(separate thread)</tspan>
    </text>
  </g>
  <g>
    <line style="fill: none; fill-opacity:0; stroke-width: 2; stroke: #000000" x1="228" y1="260" x2="455.872" y2="112.783"/>
    <polygon style="fill: #000000" points="462.172,108.713 456.486,118.34 455.872,112.783 451.059,109.94 "/>
    <polygon style="fill: none; fill-opacity:0; stroke-width: 2; stroke: #000000" points="462.172,108.713 456.486,118.34 455.872,112.783 451.059,109.94 "/>
  </g>
  <g>
    <line style="fill: none; fill-opacity:0; stroke-width: 2; stroke: #000000" x1="228" y1="321.5" x2="257.163" y2="351.068"/>
    <polygon style="fill: #000000" points="262.43,356.408 251.848,352.799 257.163,351.068 258.968,345.777 "/>
    <polygon style="fill: none; fill-opacity:0; stroke-width: 2; stroke: #000000" points="262.43,356.408 251.848,352.799 257.163,351.068 258.968,345.777 "/>
  </g>
  <text font-size="12.7998" style="fill: #000000;text-anchor:start;font-family:sans-serif;font-style:normal;font-weight:normal" x="592" y="358">
    <tspan x="592" y="358"></tspan>
  </text>
  <text font-size="13.5465" style="fill: #000000;text-anchor:start;font-family:sans-serif;font-style:normal;font-weight:normal" x="721" y="339">
    <tspan x="721" y="339">Data</tspan>
  </text>
  <text font-size="13.5465" style="fill: #000000;text-anchor:start;font-family:sans-serif;font-style:normal;font-weight:normal" x="583.1" y="391.7">
    <tspan x="583.1" y="391.7">Data</tspan>
  </text>
  <text font-size="13.5465" style="fill: #000000;text-anchor:start;font-family:sans-serif;font-style:normal;font-weight:normal" x="408.2" y="369.5">
    <tspan x="408.2" y="369.5">Data</tspan>
  </text>
  <g>
    <rect style="fill: #ffffff" x="760" y="56.4889" width="130" height="101.022"/>
    <rect style="fill: none; fill-opacity:0; stroke-width: 2; stroke: #000000" x="760" y="56.4889" width="130" height="101.022"/>
    <text font-size="15.8042" style="fill: #000000;text-anchor:middle;font-family:sans-serif;font-style:normal;font-weight:normal" x="825" y="82.1389">
      <tspan x="825" y="82.1389">User Control</tspan>
      <tspan x="825" y="101.894">CLI</tspan>
      <tspan x="825" y="121.65">GUI</tspan>
      <tspan x="825" y="141.406">...</tspan>
    </text>
  </g>
  <g>
    <line style="fill: none; fill-opacity:0; stroke-width: 2; stroke: #000000" x1="634.686" y1="107.464" x2="750.264" y2="107.036"/>
    <polygon style="fill: #000000" points="627.186,107.492 637.167,102.455 634.686,107.464 637.204,112.455 "/>
    <polygon style="fill: none; fill-opacity:0; stroke-width: 2; stroke: #000000" points="627.186,107.492 637.167,102.455 634.686,107.464 637.204,112.455 "/>
    <polygon style="fill: #000000" points="757.764,107.008 747.783,112.045 750.264,107.036 747.746,102.045 "/>
    <polygon style="fill: none; fill-opacity:0; stroke-width: 2; stroke: #000000" points="757.764,107.008 747.783,112.045 750.264,107.036 747.746,102.045 "/>
  </g>
  <g>
    <line style="fill: none; fill-opacity:0; stroke-width: 2; stroke: #0000ff" x1="537.328" y1="160.584" x2="348.972" y2="333.483"/>
    <polygon style="fill: #0000ff" points="542.853,155.512 538.867,165.958 537.328,160.584 532.105,158.591 "/>
    <polygon style="fill: none; fill-opacity:0; stroke-width: 2; stroke: #0000ff" points="542.853,155.512 538.867,165.958 537.328,160.584 532.105,158.591 "/>
    <polygon style="fill: #0000ff" points="343.447,338.555 347.433,328.109 348.972,333.483 354.195,335.476 "/>
    <polygon style="fill: none; fill-opacity:0; stroke-width: 2; stroke: #0000ff" points="343.447,338.555 347.433,328.109 348.972,333.483 354.195,335.476 "/>
  </g>
  <g>
    <line style="fill: none; fill-opacity:0; stroke-width: 2; stroke: #0000ff" x1="543.56" y1="163.691" x2="524.49" y2="360.176"/>
    <polygon style="fill: #0000ff" points="544.284,156.226 548.295,166.662 543.56,163.691 538.341,165.696 "/>
    <polygon style="fill: none; fill-opacity:0; stroke-width: 2; stroke: #0000ff" points="544.284,156.226 548.295,166.662 543.56,163.691 538.341,165.696 "/>
    <polygon style="fill: #0000ff" points="523.766,367.641 519.755,357.205 524.49,360.176 529.709,358.171 "/>
    <polygon style="fill: none; fill-opacity:0; stroke-width: 2; stroke: #0000ff" points="523.766,367.641 519.755,357.205 524.49,360.176 529.709,358.171 "/>
  </g>
  <g>
    <line style="fill: none; fill-opacity:0; stroke-width: 2; stroke: #0000ff" x1="550.273" y1="161.84" x2="652.777" y2="301.027"/>
    <polygon style="fill: #0000ff" points="545.826,155.801 555.782,160.888 550.273,161.84 547.73,166.818 "/>
    <polygon style="fill: none; fill-opacity:0; stroke-width: 2; stroke: #0000ff" points="545.826,155.801 555.782,160.888 550.273,161.84 547.73,166.818 "/>
    <polygon style="fill: #0000ff" points="657.224,307.066 647.268,301.979 652.777,301.027 655.32,296.049 "/>
    <polygon style="fill: none; fill-opacity:0; stroke-width: 2; stroke: #0000ff" points="657.224,307.066 647.268,301.979 652.777,301.027 655.32,296.049 "/>
  </g>
  <g>
    <line style="fill: none; fill-opacity:0; stroke-width: 2; stroke: #0000ff" x1="553.393" y1="157.963" x2="844.332" y2="287.604"/>
    <polygon style="fill: #0000ff" points="546.542,154.91 557.712,154.413 553.393,157.963 553.642,163.547 "/>
    <polygon style="fill: none; fill-opacity:0; stroke-width: 2; stroke: #0000ff" points="546.542,154.91 557.712,154.413 553.393,157.963 553.642,163.547 "/>
    <polygon style="fill: #0000ff" points="851.183,290.657 840.013,291.153 844.332,287.604 844.083,282.019 "/>
    <polygon style="fill: none; fill-opacity:0; stroke-width: 2; stroke: #0000ff" points="851.183,290.657 840.013,291.153 844.332,287.604 844.083,282.019 "/>
  </g>
  <g>
    <line style="fill: none; fill-opacity:0; stroke-width: 2; stroke: #0000ff" x1="552.444" y1="159.629" x2="841.931" y2="364.738"/>
    <polygon style="fill: #0000ff" points="546.325,155.293 557.375,156.994 552.444,159.629 551.593,165.154 "/>
    <polygon style="fill: none; fill-opacity:0; stroke-width: 2; stroke: #0000ff" points="546.325,155.293 557.375,156.994 552.444,159.629 551.593,165.154 "/>
    <polygon style="fill: #0000ff" points="848.05,369.074 837,367.372 841.931,364.738 842.782,359.213 "/>
    <polygon style="fill: none; fill-opacity:0; stroke-width: 2; stroke: #0000ff" points="848.05,369.074 837,367.372 841.931,364.738 842.782,359.213 "/>
  </g>
  <text font-size="14.6756" style="fill: #0000ff;text-anchor:middle;font-family:sans-serif;font-style:normal;font-weight:700" x="446" y="179">
    <tspan x="446" y="179">configuration /</tspan>
    <tspan x="446" y="197.344">information</tspan>
  </text>
  <g>
    <rect style="fill: #ffffff" x="25.45" y="31" width="194.1" height="49"/>
    <rect style="fill: none; fill-opacity:0; stroke-width: 2; stroke: #000000" x="25.45" y="31" width="194.1" height="49"/>
    <text font-size="15.8042" style="fill: #000000;text-anchor:middle;font-family:sans-serif;font-style:normal;font-weight:normal" x="122.5" y="60.2722">
      <tspan x="122.5" y="60.2722">XML configuration file</tspan>
    </text>
  </g>
  <g>
    <line style="fill: none; fill-opacity:0; stroke-width: 2; stroke: #000000" x1="122.5" y1="80" x2="122.085" y2="127.264"/>
    <polygon style="fill: #000000" points="122.02,134.764 117.108,124.721 122.085,127.264 127.107,124.808 "/>
    <polygon style="fill: none; fill-opacity:0; stroke-width: 2; stroke: #000000" points="122.02,134.764 117.108,124.721 122.085,127.264 127.107,124.808 "/>
  </g>
  <text font-size="13.5465" style="fill: #000000;text-anchor:start;font-family:sans-serif;font-style:normal;font-weight:normal" x="643" y="100">
    <tspan x="643" y="100">Network (TCP)</tspan>
  </text>
</svg>
