<?xml version="1.0" encoding="UTF-8" standalone="no"?>
<!DOCTYPE svg PUBLIC "-//W3C//DTD SVG 1.0//EN" "http://www.w3.org/TR/2001/PR-SVG-20010719/DTD/svg10.dtd">
<svg width="40cm" height="23cm" viewBox="18 9 800 443" xmlns="http://www.w3.org/2000/svg" xmlns:xlink="http://www.w3.org/1999/xlink">
  <g>
    <rect style="fill: #ffffff" x="314.675" y="11" width="197.65" height="90"/>
    <rect style="fill: none; fill-opacity:0; stroke-width: 2; stroke: #000000" x="314.675" y="11" width="197.65" height="90"/>
    <text font-size="18.0619" style="fill: #000000;text-anchor:middle;font-family:sans-serif;font-style:normal;font-weight:normal" x="413.5" y="50.1722">
      <tspan x="413.5" y="50.1722">DAVIS Camera</tspan>
      <tspan x="413.5" y="72.75">(caer_davis, INPUT)</tspan>
    </text>
  </g>
  <g>
    <rect style="fill: #ffffff" x="288.1" y="377" width="265.8" height="67.1556"/>
    <rect style="fill: none; fill-opacity:0; stroke-width: 2; stroke: #000000" x="288.1" y="377" width="265.8" height="67.1556"/>
    <text font-size="18.0619" style="fill: #000000;text-anchor:middle;font-family:sans-serif;font-style:normal;font-weight:normal" x="421" y="404.75">
      <tspan x="421" y="404.75">File Output</tspan>
      <tspan x="421" y="427.328">(caer_output_file, OUTPUT)</tspan>
    </text>
  </g>
  <g>
    <rect style="fill: #ffffff" x="19.075" y="180" width="271.85" height="84.6667"/>
    <rect style="fill: none; fill-opacity:0; stroke-width: 2; stroke: #000000" x="19.075" y="180" width="271.85" height="84.6667"/>
    <text font-size="18.0619" style="fill: #000000;text-anchor:middle;font-family:sans-serif;font-style:normal;font-weight:normal" x="155" y="216.506">
      <tspan x="155" y="216.506">Background Activity Filter</tspan>
      <tspan x="155" y="239.083">(caer_bafilter, PROCESSOR)</tspan>
    </text>
  </g>
  <g>
    <rect style="fill: #ffffff" x="20" y="360" width="255.25" height="89.7333"/>
    <rect style="fill: none; fill-opacity:0; stroke-width: 2; stroke: #000000" x="20" y="360" width="255.25" height="89.7333"/>
    <text font-size="18.0619" style="fill: #000000;text-anchor:middle;font-family:sans-serif;font-style:normal;font-weight:normal" x="147.625" y="387.75">
      <tspan x="147.625" y="387.75">Visualizer</tspan>
      <tspan x="147.625" y="410.328">(caer_visualizer, OUTPUT)</tspan>
      <tspan x="147.625" y="432.906">Renderer: Polarity</tspan>
    </text>
  </g>
  <g>
    <rect style="fill: #ffffff" x="561.1" y="149.8" width="255.25" height="89.7333"/>
    <rect style="fill: none; fill-opacity:0; stroke-width: 2; stroke: #000000" x="561.1" y="149.8" width="255.25" height="89.7333"/>
    <text font-size="18.0619" style="fill: #000000;text-anchor:middle;font-family:sans-serif;font-style:normal;font-weight:normal" x="688.725" y="177.55">
      <tspan x="688.725" y="177.55">Visualizer</tspan>
      <tspan x="688.725" y="200.128">(caer_visualizer, OUTPUT)</tspan>
      <tspan x="688.725" y="222.706">Renderer: Frame</tspan>
    </text>
  </g>
  <g>
    <rect style="fill: #ffffff" x="561.1" y="361.8" width="255.25" height="89.7333"/>
    <rect style="fill: none; fill-opacity:0; stroke-width: 2; stroke: #000000" x="561.1" y="361.8" width="255.25" height="89.7333"/>
    <text font-size="18.0619" style="fill: #000000;text-anchor:middle;font-family:sans-serif;font-style:normal;font-weight:normal" x="688.725" y="389.55">
      <tspan x="688.725" y="389.55">Visualizer</tspan>
      <tspan x="688.725" y="412.128">(caer_visualizer, OUTPUT)</tspan>
      <tspan x="688.725" y="434.706">Renderer: Polarity</tspan>
    </text>
  </g>
  <g>
    <line style="fill: none; fill-opacity:0; stroke-width: 2; stroke: #000000" x1="364.087" y1="101" x2="164.108" y2="176.559"/>
    <polygon style="fill: #000000" points="157.092,179.21 164.679,170.998 164.108,176.559 168.214,180.352 "/>
    <polygon style="fill: none; fill-opacity:0; stroke-width: 2; stroke: #000000" points="157.092,179.21 164.679,170.998 164.108,176.559 168.214,180.352 "/>
  </g>
  <g>
    <line style="fill: none; fill-opacity:0; stroke-width: 2; stroke: #000000" x1="364.087" y1="101" x2="681.135" y2="355.702"/>
    <polygon style="fill: #000000" points="686.982,360.4 676.054,358.035 681.135,355.702 682.317,350.239 "/>
    <polygon style="fill: none; fill-opacity:0; stroke-width: 2; stroke: #000000" points="686.982,360.4 676.054,358.035 681.135,355.702 682.317,350.239 "/>
  </g>
  <g>
    <line style="fill: none; fill-opacity:0; stroke-width: 2; stroke: #000000" x1="152.679" y1="265.665" x2="148.146" y2="350.278"/>
    <polygon style="fill: #000000" points="147.745,357.767 143.287,347.514 148.146,350.278 153.272,348.049 "/>
    <polygon style="fill: none; fill-opacity:0; stroke-width: 2; stroke: #000000" points="147.745,357.767 143.287,347.514 148.146,350.278 153.272,348.049 "/>
  </g>
  <g>
    <line style="fill: none; fill-opacity:0; stroke-width: 2; stroke: #000000" x1="413.5" y1="101" x2="679.138" y2="148.1"/>
    <polygon style="fill: #000000" points="686.523,149.41 675.804,152.587 679.138,148.1 677.55,142.741 "/>
    <polygon style="fill: none; fill-opacity:0; stroke-width: 2; stroke: #000000" points="686.523,149.41 675.804,152.587 679.138,148.1 677.55,142.741 "/>
  </g>
  <g>
    <line style="fill: none; fill-opacity:0; stroke-width: 2; stroke: #000000" x1="155" y1="264.667" x2="412.031" y2="373.212"/>
    <polygon style="fill: #000000" points="418.94,376.13 407.783,376.846 412.031,373.212 411.673,367.634 "/>
    <polygon style="fill: none; fill-opacity:0; stroke-width: 2; stroke: #000000" points="418.94,376.13 407.783,376.846 412.031,373.212 411.673,367.634 "/>
  </g>
  <g>
    <line style="fill: none; fill-opacity:0; stroke-width: 2; stroke: #000000" x1="413.5" y1="101" x2="420.736" y2="367.268"/>
    <polygon style="fill: #000000" points="420.939,374.765 415.669,364.904 420.736,367.268 425.666,364.633 "/>
    <polygon style="fill: none; fill-opacity:0; stroke-width: 2; stroke: #000000" points="420.939,374.765 415.669,364.904 420.736,367.268 425.666,364.633 "/>
  </g>
  <g>
    <line style="fill: none; fill-opacity:0; stroke-width: 2; stroke: #000000" x1="462.913" y1="101" x2="422.462" y2="367.374"/>
    <polygon style="fill: #000000" points="421.336,374.789 417.894,364.152 422.462,367.374 427.78,365.653 "/>
    <polygon style="fill: none; fill-opacity:0; stroke-width: 2; stroke: #000000" points="421.336,374.789 417.894,364.152 422.462,367.374 427.78,365.653 "/>
  </g>
  <text font-size="18.0622" style="fill: #000000;text-anchor:start;font-family:sans-serif;font-style:normal;font-weight:700" x="356.667" y="95.6667">
    <tspan x="356.667" y="95.6667">1</tspan>
  </text>
  <text font-size="18.0622" style="fill: #000000;text-anchor:start;font-family:sans-serif;font-style:normal;font-weight:700" x="407.1" y="96.2167">
    <tspan x="407.1" y="96.2167">2</tspan>
  </text>
  <text font-size="18.0622" style="fill: #000000;text-anchor:start;font-family:sans-serif;font-style:normal;font-weight:700" x="457.533" y="96.0167">
    <tspan x="457.533" y="96.0167">3</tspan>
  </text>
  <text font-size="12.7998" style="fill: #000000;text-anchor:start;font-family:sans-serif;font-style:normal;font-weight:normal" x="464.932" y="89.3333">
    <tspan x="464.932" y="89.3333"></tspan>
  </text>
  <text font-size="18.0622" style="fill: #000000;text-anchor:start;font-family:sans-serif;font-style:normal;font-weight:700" x="316.932" y="28.6667">
    <tspan x="316.932" y="28.6667">id: 1</tspan>
  </text>
  <text font-size="18.0622" style="fill: #000000;text-anchor:start;font-family:sans-serif;font-style:normal;font-weight:700" x="562.632" y="166.35">
    <tspan x="562.632" y="166.35">id: 5</tspan>
    <tspan x="562.632" y="188.928"></tspan>
  </text>
  <text font-size="18.0622" style="fill: #000000;text-anchor:start;font-family:sans-serif;font-style:normal;font-weight:700" x="146.108" y="260.35">
    <tspan x="146.108" y="260.35">1</tspan>
  </text>
  <text font-size="18.0622" style="fill: #000000;text-anchor:start;font-family:sans-serif;font-style:normal;font-weight:700" x="21.4417" y="197.35">
    <tspan x="21.4417" y="197.35">id: 2</tspan>
  </text>
  <text font-size="18.0622" style="fill: #000000;text-anchor:start;font-family:sans-serif;font-style:normal;font-weight:700" x="23.1417" y="377.283">
    <tspan x="23.1417" y="377.283">id: 3</tspan>
  </text>
  <text font-size="18.0622" style="fill: #000000;text-anchor:start;font-family:sans-serif;font-style:normal;font-weight:700" x="289.508" y="393.55">
    <tspan x="289.508" y="393.55">id: 7</tspan>
  </text>
  <text font-size="18.0622" style="fill: #000000;text-anchor:start;font-family:sans-serif;font-style:normal;font-weight:700" x="564.208" y="380.483">
    <tspan x="564.208" y="380.483">id: 4</tspan>
  </text>
  <text font-size="12.7998" style="fill: #000000;text-anchor:start;font-family:sans-serif;font-style:normal;font-weight:normal" x="113.075" y="304.667">
    <tspan x="113.075" y="304.667"></tspan>
  </text>
  <text font-size="12.7998" style="fill: #000000;text-anchor:start;font-family:sans-serif;font-style:normal;font-weight:normal" x="548.844" y="166.333">
    <tspan x="548.844" y="166.333"></tspan>
  </text>
</svg>
